<svg id="Layer_1" data-name="Layer 1" xmlns="http://www.w3.org/2000/svg" viewBox="0 0 612 792"><defs><style>.cls-1{fill:none;stroke:#231f20;stroke-miterlimit:10;stroke-width:1.12px;}</style></defs><path class="cls-1" d="M160.55,707.39l-.38-.23c-34.1-20.59-63.18-49.83-86.43-86.91C55.15,590.6,40.22,555.9,29.38,517.12c-18.45-66-18.67-121.74-18.67-122.29S11,340.9,40.44,276.35a348.34,348.34,0,0,1,70.91-101.93C148.51,137.26,195,107.18,249.57,85l1-.4-.21,1c-.06.26-5.3,26.45-3.61,61.49,1.56,32.32,9.52,79,38.55,117.82,23.86,28.8,61.73,43.17,89.28,50.14a282.05,282.05,0,0,0,54.7,8.31h92l0,.6L502.34,622.88H411.11c-.41,0-41.82.18-93.14,10.62-47.33,9.63-113,30.22-157.11,73.58Z"/><path class="cls-1" d="M228.16,116.56c-44.95,21.87-83.31,50-114,83.74a328.07,328.07,0,0,0-59,91.44C30.58,348.86,30.28,394.83,30.28,395.28s.19,50.26,16.15,110.46c9.37,35.35,22.26,67.33,38.32,95,20,34.49,44.94,62.45,74.2,83.1,26.33-23.13,59.83-41.71,99.56-55.22,31.89-10.85,67.86-18.48,106.9-22.68,62.71-6.75,113.47-2.35,119.43-1.78L501.57,343a487.13,487.13,0,0,1-91-2.12C365.21,335.4,304.37,320.22,272.23,279c-14.89-18.39-34.19-51.71-41.58-105.92A301.06,301.06,0,0,1,228.16,116.56Z"/><line class="cls-1" x1="394.63" y1="621.85" x2="413.44" y2="323.49"/><line class="cls-1" x1="413.44" y1="322.69" x2="516.31" y2="394.69"/><line class="cls-1" x1="394.63" y1="621.85" x2="506.82" y2="550.85"/></svg>