<svg id="Layer_1" data-name="Layer 1" xmlns="http://www.w3.org/2000/svg" viewBox="0 0 612 792"><defs><style>.cls-1{fill:none;stroke:#231f20;stroke-miterlimit:10;stroke-width:1.12px;}</style></defs><path class="cls-1" d="M325.57,86.44c-54,22.07-100,51.93-136.87,88.75A347.16,347.16,0,0,0,118,276.77C88.63,341.11,88.37,394.3,88.37,394.83s.21,56.15,18.63,122c10.82,38.67,25.7,73.26,44.23,102.82,23.07,36.78,51.9,65.82,85.68,86.31,44.31-43.36,110-63.94,157.39-73.58,51.42-10.47,92.92-10.64,93.34-10.64h17.18l18.74-297.24H505.78a281.09,281.09,0,0,1-54.94-8.34c-27.72-7-65.83-21.47-89.92-50.54C344.79,244.06,325,206,322.14,147.16A283.35,283.35,0,0,1,325.57,86.44Z"/><path class="cls-1" d="M304.57,115.54c-42.86,20.49-79.88,47.26-110,79.58a334.7,334.7,0,0,0-59.22,88.18C114.86,327.57,108,368.51,107.3,384c0,.5-1.63,51.42,13.38,113.46,8.82,36.43,21.56,69.51,37.86,98.32,20.3,35.86,46.21,65.18,77,87.14,47.32-40.93,113.54-60.35,160.8-69.44a557,557,0,0,1,91.86-10l16.47-261.22c-4.15.24-27.8,1.19-57.66-6.3-30.24-7.58-73.22-25.62-106.29-68.47C299.75,206.15,303.9,125.32,304.57,115.54Z"/></svg>