<svg id="Layer_1" data-name="Layer 1" xmlns="http://www.w3.org/2000/svg" viewBox="0 0 612 792"><defs><style>.cls-1{fill:none;stroke:#231f20;stroke-miterlimit:10;stroke-width:1.12px;}.cls-2{font-size:12px;font-family:MyriadPro-Regular, Myriad Pro;}.cls-3{letter-spacing:-0.05em;}.cls-4{letter-spacing:-0.01em;}.cls-5{letter-spacing:0em;}.cls-6{letter-spacing:0.01em;}.cls-7{letter-spacing:0em;}.cls-8{letter-spacing:0.01em;}</style></defs><path class="cls-1" d="M222.9,630.82a.23.23,0,0,0-.1-.05m62.89-469.22c-46.48,19.29-86.09,53.26-114.59,98.29-27,42.68-43.06,93.18-46.4,146-.55,52.7,14.13,108.63,41.33,157.44,15.2,26.18,33.82,48.46,55.35,66.2l1.29,1.1.38-.24.68-.48c77.28-53.4,161.25-52,250.86-51,9.74.11,19.81.22,29.75.25l17.92-239.23c-10.65-.07-23.11,0-36.29,0-21.07.07-42.85.14-59.59-.24h0c-30-2.55-60.59-12.7-91.08-30.19-21.41-14.6-36.23-37.11-44.07-66.9C285.08,219.34,283.23,192.09,285.69,161.55Z"/><path class="cls-1" d="M266.57,191.28C230.45,211.24,199.5,244,177,286c-20.9,39.09-33.19,84.33-34.61,127.38,3.39,79.09,33.27,150.05,82,194.7C309,559,380.67,559.89,456.52,560.86c10.14.13,20.61.27,31.12.28l15.22-203.22c-8.85,0-17.29.14-25.46.28-51.19.87-91.64,1.55-151.94-33.62l0,0c-32.27-20.65-46.55-56.07-52.85-82.14A218.09,218.09,0,0,1,266.57,191.28Z"/><line class="cls-1" x1="397.19" y1="578.25" x2="415.19" y2="337.91"/><line class="cls-1" x1="415.19" y1="337.91" x2="516.03" y2="409.64"/><line class="cls-1" x1="397.19" y1="578.25" x2="509.44" y2="506.93"/><text class="cls-2" transform="translate(465.62 2.31)"><tspan class="cls-3">F</tspan><tspan x="5.3" y="0">a</tspan><tspan class="cls-4" x="11.09" y="0">c</tspan><tspan class="cls-5" x="16.39" y="0">e </tspan><tspan class="cls-6" x="24.95" y="0">M</tspan><tspan class="cls-7" x="34.67" y="0">ask | Child | Small | </tspan><tspan class="cls-8" x="128.1" y="0">I</tspan><tspan x="131.09" y="0">nside</tspan></text></svg>