<svg id="Layer_1" data-name="Layer 1" xmlns="http://www.w3.org/2000/svg" viewBox="0 0 612 792"><defs><style>.cls-1{fill:none;stroke:#231f20;stroke-miterlimit:10;stroke-width:1.12px;}</style></defs><path id="dieline" class="cls-1" d="M305.18,161.55c-46.48,19.29-86.09,53.26-114.6,98.29-27,42.68-43.05,93.18-46.39,146-.09,74.2,25.76,146.63,70.92,198.7A239.72,239.72,0,0,0,242,630.49l.15.13.39-.26c1.46-1,2.13-1.45,2.5-1.65h0c28.52-19,61.84-32.82,99-41,32.84-7.22,68.74-10.11,106.74-8.59,1.31-17.54,3.87-51.69,6.69-89.26,4.34-58,9.3-124.19,11.22-149.91-37.12,1.82-76.52-8.72-114-30.47l0,0c-21.37-14.58-36.19-37.09-44-66.88C304.56,219.34,302.71,192.09,305.18,161.55Z"/><path class="cls-1" d="M286.08,191.31A238.68,238.68,0,0,0,195.81,286c-19.28,36.42-30.69,79.3-33.91,127.45,3.4,79.08,33.28,150,82,194.68,54.16-32.71,119.92-49,190.23-47,.78-11.76,2.95-40,5.46-72.71,3.9-50.72,8.74-113.71,9.5-130.55C415.91,356.1,379.92,344.6,345,324.58c-31.09-18.61-45.44-54.14-52-80.67A241.72,241.72,0,0,1,286.08,191.31Z"/></svg>