<svg id="Layer_1" data-name="Layer 1" xmlns="http://www.w3.org/2000/svg" viewBox="0 0 612 792"><defs><style>.cls-1{fill:none;stroke:#231f20;stroke-miterlimit:10;stroke-width:1.12px;}</style></defs><path class="cls-1" d="M319,110.76C263.4,128.39,214.23,164.08,176.69,214a311.41,311.41,0,0,0-68.93,164.32c-6.31,58,3.17,117.5,27.42,172C155.9,600.66,187,642.72,225.24,672c2.18,1.78,4.94,3.71,7.61,5.57,1.63,1.14,3.18,2.21,4.61,3.26l.68.54.56-.43A308.09,308.09,0,0,1,321.31,636c37.75-13.4,81.82-21.39,131-23.75,8.74-.3,16.27-.36,22.32-.41s10.37-.09,13.16-.32L506.1,340.33h-.84c-36.91,0-78.23-10.39-110.86-27.92-35.75-21.56-61.24-54.28-73.73-94.63C311.51,184.77,310.91,146.8,319,110.76Z"/><path class="cls-1" d="M296.21,139.32c-41.37,19.23-76,46.88-103.07,82.18-21.78,28.45-42.68,62.9-54.22,100.43-19.66,63.94-12.9,117.26-12.87,117.8,0,.35,2,35.12,16.75,79.34,13.58,40.7,41.07,97.95,95,139.76,51.56-36.13,112.29-52,154.2-58.9,42.33-7,74.49-6.55,79-6.45L486.84,358.3a328.33,328.33,0,0,1-60.17-13.25c-48.17-15.91-80.2-45.07-92.73-63.32-20.46-30-29.07-47.37-37.31-89.94A257.9,257.9,0,0,1,296.21,139.32Z"/></svg>