<svg id="Layer_1" data-name="Layer 1" xmlns="http://www.w3.org/2000/svg" viewBox="0 0 612 792"><defs><style>.cls-1{fill:none;stroke:#231f20;stroke-miterlimit:10;stroke-width:1.12px;}</style></defs><path class="cls-1" d="M414.52,339.9c-103.88-12.81-172.41-62.2-175.46-173.2A230.3,230.3,0,0,1,244.79,110c-9.34,3.06-19.33,7.28-28.43,11.18C93.24,174.63,21.47,316.8,33.34,447.83c10.28,84.51,43.16,172.64,129.8,234.28,96-78.58,232-70.76,340.33-70l18.38-272.29C491,340,445.05,339.72,414.52,339.9Z"/><path class="cls-1" d="M502.34,357.77c-32.4-.17-59.88.41-91.95-.15-52.72-8.08-109.81-23.39-145.83-66-36.19-41.72-48-99.35-43-153-8.17,3-17.91,8.64-26.09,13.32C102,205.64,51.83,315,48.67,420.28c4.75,89.91,40.23,183.6,113.57,239.31,92-67,214.09-67.47,323.91-65.53l16.19-236.29Z"/><line class="cls-1" x1="395.19" y1="611.81" x2="413.56" y2="339.52"/><line class="cls-1" x1="413.56" y1="339.52" x2="516.49" y2="411.52"/><line class="cls-1" x1="395.19" y1="611.81" x2="508.55" y2="539.67"/></svg>