<svg id="Layer_1" data-name="Layer 1" xmlns="http://www.w3.org/2000/svg" viewBox="0 0 612 792"><defs><style>.cls-1{fill:none;stroke:#231f20;stroke-miterlimit:10;stroke-width:1.12px;}</style></defs><path class="cls-1" d="M450.42,353.77l-17,204.37c-27.68,2.12-93.36-7.71-188.83,47.1-117.17-121.14-125-327.39,72.82-418.48C302.1,261.21,330.85,363.4,450.42,353.77Z"/><path class="cls-1" d="M297.51,217.22c-32.91,17.17-67,46.46-87.37,81-19.53,33.17-30.07,69.31-32.38,108.29,1.55,69.11,28.78,133.07,69.51,175.49,49-27,105.9-41.25,169-42.41l13.33-167.32c-43.15-1.62-76.72-20.66-99.78-46.73C295,283.2,297,224.14,297.51,217.22Z"/></svg>