<svg id="Layer_1" data-name="Layer 1" xmlns="http://www.w3.org/2000/svg" viewBox="0 0 612 792"><defs><style>.cls-1{fill:none;stroke:#231f20;stroke-miterlimit:10;stroke-width:1.12px;}</style></defs><path class="cls-1" d="M315.9,187.72l-2.08.86c-43.83,16-81.56,46.45-109.14,88A258.8,258.8,0,0,0,161.94,411c2.09,50.17,15.4,98.33,38.5,139.21a221.23,221.23,0,0,0,43.35,54.31,289.5,289.5,0,0,1,68.52-30.75c51.48-17.07,107.7-16.64,162.06-16.22,10.14.07,20.61.15,30.78.11l16.92-203.25H432c-39-.41-69.34-13.06-90.16-37.61-25.05-29.54-34.36-74.75-26.22-127.31Z"/><path class="cls-1" d="M246.22,583.34l-.29-.29c-46.05-46.87-64.87-120.27-67.13-173.35a247.69,247.69,0,0,1,32.81-112.65c20.69-35.7,49.58-63.8,83.56-81.26l.9-.46-.08,1c-.06.68-5.25,69,35.6,114.37,23.37,26,57.19,39.6,100.51,40.54h71.63L489.62,540.74h-.52c-10.47,0-20.41,0-30,0-76.85-.33-127.64-.55-212.49,42.46Z"/><line class="cls-1" x1="399.01" y1="558.14" x2="416.03" y2="353.77"/><line class="cls-1" x1="414.75" y1="352.98" x2="516.53" y2="424.98"/><line class="cls-1" x1="399.01" y1="558.14" x2="511.43" y2="486.27"/></svg>