<svg id="Layer_1" data-name="Layer 1" xmlns="http://www.w3.org/2000/svg" viewBox="0 0 612 792"><defs><style>.cls-1{fill:none;stroke:#231f20;stroke-miterlimit:10;stroke-width:1.12px;}</style></defs><path class="cls-1" d="M268.73,134.67m-.89,1.05a315.87,315.87,0,0,0-46.41,26.49c-51,35.6-91.47,89.2-113.93,150.91-22.79,62.64-25.32,129.52-7.12,188.31C118.23,566,154.22,621.09,201.72,656.61c37.55-30,84.26-49.2,142.79-58.64,51.67-8.34,105.53-8.09,156.31-7.08L521.41,335.7c-8.36-.08-17.72.21-27.61.53-19.82.62-42.27,1.33-62.77-.94h0c-54.38-6.83-94.62-20.58-119.61-40.87C269,258.26,251.49,194.55,267.84,135.72Z"/><path class="cls-1" d="M244,168.94c-40.76,24.67-75.2,61.64-99.65,107a332.7,332.7,0,0,0-39.13,143A334.46,334.46,0,0,0,140.42,555.1c16.32,31.67,37.65,58.84,61.71,78.61,37.33-26.31,81.67-43.63,135.55-52.92,52.26-9,105.7-9,146.53-7.9l17.68-219.14a447.27,447.27,0,0,1-73.79-1.46c-38.09-3.89-91.29-14.73-128.46-44.24h0c-33-26.46-46.37-63.18-51.75-89.31A197.44,197.44,0,0,1,244,168.94Z"/><line class="cls-1" x1="393.19" y1="593.53" x2="413.87" y2="332.22"/><line class="cls-1" x1="414.88" y1="332.42" x2="515.41" y2="405.52"/><line class="cls-1" x1="393.19" y1="593.01" x2="506.41" y2="519.59"/></svg>