<svg id="Layer_1" data-name="Layer 1" xmlns="http://www.w3.org/2000/svg" viewBox="0 0 612 792"><defs><style>.cls-1{fill:none;stroke:#231f20;stroke-miterlimit:10;stroke-width:1.12px;}</style></defs><path class="cls-1" d="M305.83,135.72l-2.94,1.4A306.74,306.74,0,0,0,250.08,169C178.31,222.39,131.7,313.55,125.41,412.83c1.11,93.17,39.8,181.1,103.5,235.17,2.8,2.35,5.91,4.75,8.92,7.07l1.95,1.5a229.28,229.28,0,0,1,31.68-21.5c53.18-28.93,119.51-44.18,192-44.18h3c3.82-37.75,7.95-91.51,11.94-143.5,3.2-41.72,6.23-81.14,9-111.69-39.09,0-100.44-16.87-131.71-36.22l0,0c-23.7-17.72-40.85-43.35-49.6-74.11A167.34,167.34,0,0,1,305.83,135.72Z"/><path class="cls-1" d="M282.3,168.8c-50.41,31.48-87.83,75.09-111.24,129.65-15.54,36.2-24.89,77.47-27.8,122.67,0,.29.31,33.07,12.91,76.5,11.61,47.14,33.76,92.48,84,136.08,53.61-37.31,124.28-57.76,210.07-60.79L468,353.34c-43.26-7.94-87.95-16.2-125.29-40.95-36.93-29.07-51.36-66.86-57-93.46A177,177,0,0,1,282.3,168.8Z"/></svg>